<svg xmlns="http://www.w3.org/2000/svg" viewBox="0 0 512 512">
  <defs>
    <linearGradient id="skyGrad" x1="0%" y1="0%" x2="100%" y2="100%">
      <stop offset="0%" style="stop-color:#60a5fa"/>
      <stop offset="100%" style="stop-color:#3b82f6"/>
    </linearGradient>
  </defs>
  <!-- Background circle -->
  <circle cx="256" cy="256" r="256" fill="url(#skyGrad)"/>
  <!-- Sun -->
  <circle cx="256" cy="256" r="80" fill="#fbbf24" stroke="#f59e0b" stroke-width="8"/>
  <!-- Sun rays -->
  <g stroke="#fbbf24" stroke-width="16" stroke-linecap="round">
    <line x1="256" y1="120" x2="256" y2="80"/>
    <line x1="256" y1="432" x2="256" y2="392"/>
    <line x1="120" y1="256" x2="80" y2="256"/>
    <line x1="432" y1="256" x2="392" y2="256"/>
    <line x1="160" y1="160" x2="132" y2="132"/>
    <line x1="352" y1="352" x2="380" y2="380"/>
    <line x1="160" y1="352" x2="132" y2="380"/>
    <line x1="352" y1="160" x2="380" y2="132"/>
  </g>
  <!-- Cloud -->
  <path d="M380 340 Q420 340 420 300 Q420 260 380 260 Q378 220 340 220 Q300 220 290 250 Q260 240 240 260 Q200 260 200 300 Q200 340 240 340 Z" fill="white" opacity="0.95"/>
</svg>
